<svg xmlns="http://www.w3.org/2000/svg" viewBox="0 0 400 300">
  <defs>
    <linearGradient id="bg" x1="0%" y1="0%" x2="100%" y2="100%">
      <stop offset="0%" stop-color="#0f172a"/>
      <stop offset="100%" stop-color="#1c2741"/>
    </linearGradient>
  </defs>

  <rect width="400" height="300" fill="url(#bg)"/>

  <!-- Home Assistant logo (left, scaled and centered) -->
  <g transform="translate(62, 72) scale(4.0)">
    <path fill="#41BDF5" d="M22.939 10.627 13.061.749a1.505 1.505 0 0 0-2.121 0l-9.879 9.878C.478 11.21 0 12.363 0 13.187v9c0 .826.675 1.5 1.5 1.5h9.227l-4.063-4.062a2.034 2.034 0 0 1-.664.113c-1.13 0-2.05-.92-2.05-2.05s.92-2.05 2.05-2.05 2.05.92 2.05 2.05c0 .233-.041.456-.113.665l3.163 3.163V9.928a2.05 2.05 0 0 1-1.15-1.84c0-1.13.92-2.05 2.05-2.05s2.05.92 2.05 2.05a2.05 2.05 0 0 1-1.15 1.84v8.127l3.146-3.146A2.051 2.051 0 0 1 18 12.239c1.13 0 2.05.92 2.05 2.05s-.92 2.05-2.05 2.05c-.25 0-.488-.047-.709-.13L12.9 20.602v3.088h9.6c.825 0 1.5-.675 1.5-1.5v-9c0-.825-.477-1.977-1.061-2.561z"/>
  </g>

  <!-- Divider -->
  <line x1="200" y1="70" x2="200" y2="230" stroke="#1e3a5f" stroke-width="1.5"/>

  <!-- Shelly logo (right, scaled and centered) -->
  <g transform="translate(252, 72) scale(4.0)">
    <path fill="#FF6B00" d="M12 0C5.373 0 0 5.373 0 12a12 12 0 0 0 .033.88c1.07-.443 2.495-.679 4.322-.679h5.762c-.167.61-.548 1.087-1.142 1.436-.532.308-1.14.463-1.823.463h-.927c-.89 0-1.663.154-2.32.463-.859.403-1.286 1-1.286 1.789 0 .893.59 1.594 1.774 2.1a7.423 7.423 0 0 0 2.927.581c1.318 0 2.416-.29 3.297-.867 1.024-.664 1.535-1.616 1.535-2.857 0-.854-.325-2.08-.976-3.676-.65-1.597-.975-2.837-.975-3.723 0-2.79 2.305-4.233 6.916-4.324.641-.01 1.337-.005 1.916-.004.593 0 1.144.05 1.66.147A12 12 0 0 0 12 0zm4.758 5.691c-1.206 0-1.809.502-1.809 1.506 0 .514.356 1.665 1.067 3.451.71 1.787 1.064 3.186 1.064 4.198 0 2.166-1.202 3.791-3.607 4.875-1.794.797-3.892 1.197-6.297 1.197-1.268 0-2.442-.114-3.543-.316A12 12 0 0 0 12 24c6.627 0 12-5.373 12-12a12 12 0 0 0-.781-4.256 3.404 3.404 0 0 1-.832.77h-4.371l1.425-2.828a299.94 299.94 0 0 0-2.683.005Z"/>
  </g>

  <!-- Labels -->
  <text x="110" y="256" text-anchor="middle" font-family="sans-serif" font-size="13" font-weight="700" fill="#41BDF5" letter-spacing="0.05em">HOME ASSISTANT</text>
  <text x="300" y="256" text-anchor="middle" font-family="sans-serif" font-size="13" font-weight="700" fill="#FF6B00" letter-spacing="0.05em">SHELLY</text>
</svg>
