<svg xmlns="http://www.w3.org/2000/svg" viewBox="0 0 400 300">
  <defs>
    <linearGradient id="bg" x1="0%" y1="0%" x2="100%" y2="100%">
      <stop offset="0%" stop-color="#0f172a"/>
      <stop offset="100%" stop-color="#1c2741"/>
    </linearGradient>
    <radialGradient id="glow" cx="50%" cy="50%" r="50%">
      <stop offset="0%" stop-color="#41BDF5" stop-opacity="0.7"/>
      <stop offset="100%" stop-color="#41BDF5" stop-opacity="0"/>
    </radialGradient>
  </defs>

  <rect width="400" height="300" fill="url(#bg)"/>

  <!-- Frame 1: outer (15,15,370,270) content starts y=41 -->
  <rect x="15" y="15" width="370" height="270" rx="8" fill="#1e293b" stroke="#334155" stroke-width="1"/>
  <rect x="15" y="15" width="370" height="26" rx="8" fill="#2d3f56"/>
  <rect x="15" y="29" width="370" height="12" fill="#2d3f56"/>
  <circle cx="32" cy="28" r="4.5" fill="#ef4444" opacity="0.85"/>
  <circle cx="47" cy="28" r="4.5" fill="#f59e0b" opacity="0.85"/>
  <circle cx="62" cy="28" r="4.5" fill="#22c55e" opacity="0.85"/>
  <rect x="80" y="20" width="160" height="14" rx="7" fill="#0f172a" opacity="0.7"/>
  <text x="160" y="31" text-anchor="middle" font-family="monospace" font-size="8" fill="#64748b">49b.at</text>
  <rect x="15" y="41" width="370" height="244" fill="#0f172a"/>

  <!-- Frame 2: (92,84,215,157) content starts y=104 -->
  <rect x="92" y="84" width="215" height="157" rx="6" fill="#1e293b" stroke="#334155" stroke-width="0.8"/>
  <rect x="92" y="84" width="215" height="20" rx="6" fill="#2d3f56"/>
  <rect x="92" y="95" width="215" height="9" fill="#2d3f56"/>
  <circle cx="104" cy="94" r="3.5" fill="#ef4444" opacity="0.85"/>
  <circle cx="115" cy="94" r="3.5" fill="#f59e0b" opacity="0.85"/>
  <circle cx="126" cy="94" r="3.5" fill="#22c55e" opacity="0.85"/>
  <rect x="138" y="87" width="110" height="11" rx="5.5" fill="#0f172a" opacity="0.7"/>
  <text x="193" y="96" text-anchor="middle" font-family="monospace" font-size="6.5" fill="#64748b">49b.at</text>
  <rect x="92" y="104" width="215" height="137" fill="#0f172a"/>

  <!-- Frame 3: (137,127,125,91) content starts y=143 -->
  <rect x="137" y="127" width="125" height="91" rx="5" fill="#1e293b" stroke="#334155" stroke-width="0.6"/>
  <rect x="137" y="127" width="125" height="16" rx="5" fill="#2d3f56"/>
  <rect x="137" y="136" width="125" height="7" fill="#2d3f56"/>
  <circle cx="146" cy="135" r="2.5" fill="#ef4444" opacity="0.85"/>
  <circle cx="154" cy="135" r="2.5" fill="#f59e0b" opacity="0.85"/>
  <circle cx="162" cy="135" r="2.5" fill="#22c55e" opacity="0.85"/>
  <rect x="169" y="129" width="68" height="9" rx="4.5" fill="#0f172a" opacity="0.7"/>
  <text x="203" y="137" text-anchor="middle" font-family="monospace" font-size="5" fill="#64748b">49b.at</text>
  <rect x="137" y="143" width="125" height="75" fill="#0f172a"/>

  <!-- Frame 4: (163,154,73,53) content starts y=166 -->
  <rect x="163" y="154" width="73" height="53" rx="3.5" fill="#1e293b" stroke="#334155" stroke-width="0.5"/>
  <rect x="163" y="154" width="73" height="12" rx="3.5" fill="#2d3f56"/>
  <rect x="163" y="161" width="73" height="5" fill="#2d3f56"/>
  <circle cx="170" cy="160" r="2" fill="#ef4444" opacity="0.85"/>
  <circle cx="176" cy="160" r="2" fill="#f59e0b" opacity="0.85"/>
  <circle cx="182" cy="160" r="2" fill="#22c55e" opacity="0.85"/>
  <rect x="186" y="155" width="42" height="7" rx="3.5" fill="#0f172a" opacity="0.7"/>
  <text x="207" y="161" text-anchor="middle" font-family="monospace" font-size="4" fill="#64748b">49b.at</text>
  <rect x="163" y="166" width="73" height="41" fill="#0f172a"/>

  <!-- Frame 5: (178,171,43,30) content starts y=181 -->
  <rect x="178" y="171" width="43" height="30" rx="2.5" fill="#1e293b" stroke="#334155" stroke-width="0.4"/>
  <rect x="178" y="171" width="43" height="10" rx="2.5" fill="#2d3f56"/>
  <rect x="178" y="177" width="43" height="4" fill="#2d3f56"/>
  <circle cx="183" cy="176" r="1.5" fill="#ef4444" opacity="0.8"/>
  <circle cx="188" cy="176" r="1.5" fill="#f59e0b" opacity="0.8"/>
  <circle cx="193" cy="176" r="1.5" fill="#22c55e" opacity="0.8"/>
  <rect x="195" y="172" width="22" height="6" rx="3" fill="#0f172a" opacity="0.7"/>
  <text x="206" y="177" text-anchor="middle" font-family="monospace" font-size="3.5" fill="#64748b">49b.at</text>
  <rect x="178" y="181" width="43" height="20" fill="#0f172a"/>

  <!-- Frame 6: (187,182,25,17) content starts y=190 -->
  <rect x="187" y="182" width="25" height="17" rx="2" fill="#1e293b" stroke="#334155" stroke-width="0.3"/>
  <rect x="187" y="182" width="25" height="8" rx="2" fill="#2d3f56"/>
  <rect x="187" y="187" width="25" height="3" fill="#2d3f56"/>
  <circle cx="191" cy="186" r="1" fill="#ef4444" opacity="0.75"/>
  <circle cx="194.5" cy="186" r="1" fill="#f59e0b" opacity="0.75"/>
  <circle cx="198" cy="186" r="1" fill="#22c55e" opacity="0.75"/>
  <rect x="187" y="190" width="25" height="9" fill="#0f172a"/>

  <!-- Infinite vanishing glow at center of recursion -->
  <circle cx="199" cy="195" r="18" fill="url(#glow)"/>
  <circle cx="199" cy="195" r="5" fill="#41BDF5" opacity="0.35"/>
  <circle cx="199" cy="195" r="2" fill="#89b4fa" opacity="0.7"/>
  <circle cx="199" cy="195" r="0.7" fill="#ffffff" opacity="0.95"/>
</svg>
