<svg xmlns="http://www.w3.org/2000/svg" width="800" height="500" viewBox="0 0 800 500">
  <rect width="800" height="500" fill="#2d1b0e"/>
  <!-- Saw blade with teeth -->
  <path d="M140,215 L560,200 L560,230
           L532,252 L532,230
           L504,252 L504,230
           L476,252 L476,230
           L448,252 L448,230
           L420,252 L420,230
           L392,252 L392,230
           L364,252 L364,230
           L336,252 L336,230
           L308,252 L308,230
           L280,252 L280,230
           L252,252 L252,230
           L224,252 L224,230
           L196,252 L196,230
           L168,252 L168,230
           L140,245 Z"
        fill="#d4a96a"/>
  <!-- Handle -->
  <path d="M560,200 Q615,185 655,215 Q685,242 668,278 Q648,305 605,294 Q570,283 560,250 Z"
        fill="#8B4513"/>
  <!-- Handle grip lines -->
  <line x1="578" y1="215" x2="592" y2="280" stroke="#2d1b0e" stroke-width="3" stroke-linecap="round"/>
  <line x1="600" y1="210" x2="614" y2="272" stroke="#2d1b0e" stroke-width="3" stroke-linecap="round"/>
  <text x="400" y="320" font-family="serif" font-size="28" fill="#e8c99a" text-anchor="middle">Woodworking</text>
</svg>
